<svg width="277" height="234" viewBox="0 0 277 234" fill="none" xmlns="http://www.w3.org/2000/svg">
<path d="M229 117C229 164.497 187.801 203 136.979 203C86.1573 203 48 164.497 48 117C48 69.5036 86.1573 31 136.979 31C187.801 31 229 69.5036 229 117Z" fill="#3F72F2"/>
<path d="M92 168H141.88V155H92V168ZM135.12 168H185V155H135.12V168Z" fill="white"/>
<path d="M92 138.004V80H116.809C123.823 80 129.144 81.7129 132.775 85.1392C136.436 88.5644 138.268 93.1061 138.268 98.7629C138.268 104.421 136.451 108.976 132.82 112.428C129.221 115.853 123.838 117.567 116.67 117.567H104.613V138.004H92ZM104.613 109.759H114.574C118.702 109.759 121.572 108.722 123.186 106.651C124.8 104.58 125.606 102.004 125.606 98.9232C125.606 95.8415 124.8 93.2793 123.186 91.2339C121.572 89.1885 118.702 88.1665 114.574 88.1665H104.613V109.759ZM141.572 119.479V118.204C141.572 112.335 143.619 107.635 147.717 104.102C151.812 100.569 157.243 98.803 164.008 98.803C170.711 98.803 175.877 100.476 179.508 103.823C183.169 107.169 185 111.791 185 117.687V120.913H148.555V114.897H173.037V114.419C173.037 112.215 172.293 110.33 170.803 108.762C169.344 107.169 167.065 106.372 163.961 106.372C160.609 106.372 158.081 107.421 156.373 109.52C154.667 111.591 153.814 114.22 153.814 117.408V119.678C153.814 123.238 154.729 126.079 156.56 128.203C158.422 130.302 161.121 131.351 164.66 131.351C167.142 131.351 169.236 130.9 170.943 129.997C172.649 129.094 173.984 127.951 174.945 126.57L184.582 129.997C183.185 132.626 180.842 134.79 177.553 136.489C174.295 138.163 170.044 139 164.799 139C157.445 139 151.736 137.234 147.67 133.701C143.604 130.168 141.572 125.428 141.572 119.479Z" fill="white"/>
</svg>
