<svg width="133" height="127" viewBox="0 0 133 127" fill="none" xmlns="http://www.w3.org/2000/svg">
<g clip-path="url(#clip0_7_9)">
<path d="M132.99 65.1534C132.387 99.9421 101.628 127.619 64.2899 126.971C26.9513 126.323 -0.593446 97.6353 0.0100315 62.8466C0.613509 28.0579 29.1367 0.342381 66.4752 0.990091C103.814 1.6378 133.593 30.3647 132.99 65.1534Z" fill="#3F72F2"/>
<path d="M39.8403 99.68H68.9683V86.48H39.8403V99.68ZM65.02 99.68H94.148V86.48H65.02V99.68Z" fill="white"/>
<path d="M38.2511 79V78.43L39.3911 78.031C40.1511 77.803 40.6451 77.461 40.8731 77.005C41.1391 76.549 41.2721 75.941 41.2721 75.181V45.313C41.2721 44.553 41.1391 43.945 40.8731 43.489C40.6071 43.033 40.0941 42.672 39.3341 42.406L38.2511 41.95V41.38H52.1021C57.7641 41.38 61.8491 42.425 64.3571 44.515C66.9031 46.567 68.1761 49.284 68.1761 52.666C68.1761 54.832 67.6441 56.827 66.5801 58.651C65.5541 60.437 63.8441 61.862 61.4501 62.926C59.0561 63.99 55.8261 64.522 51.7601 64.522H49.8221V75.01C49.8221 76.492 50.5631 77.461 52.0451 77.917L53.7551 78.43V79H38.2511ZM49.8221 63.382H51.9881C53.8501 63.382 55.3701 63.078 56.5481 62.47C57.7261 61.862 58.6001 60.798 59.1701 59.278C59.7401 57.758 60.0251 55.649 60.0251 52.951C60.0251 50.215 59.7021 48.087 59.0561 46.567C58.4481 45.047 57.5361 44.002 56.3201 43.432C55.1041 42.824 53.5841 42.52 51.7601 42.52H49.8221V63.382ZM83.5603 50.728C86.0303 50.728 88.1393 51.241 89.8873 52.267C91.6353 53.255 92.9653 54.623 93.8773 56.371C94.8273 58.081 95.3023 60.038 95.3023 62.242C95.3023 62.66 95.2833 63.097 95.2453 63.553C95.2073 63.971 95.1313 64.351 95.0173 64.693H78.0313C78.0693 68.797 78.7913 71.761 80.1973 73.585C81.6413 75.371 83.7693 76.264 86.5813 76.264C88.4813 76.264 90.0203 75.96 91.1983 75.352C92.3763 74.744 93.4783 73.851 94.5043 72.673L95.0743 73.186C93.8963 75.276 92.3193 76.91 90.3433 78.088C88.4053 79.266 86.0683 79.855 83.3323 79.855C80.6343 79.855 78.2403 79.285 76.1503 78.145C74.0603 76.967 72.4263 75.295 71.2483 73.129C70.0703 70.963 69.4813 68.379 69.4813 65.377C69.4813 62.261 70.1653 59.62 71.5333 57.454C72.9013 55.25 74.6493 53.578 76.7773 52.438C78.9433 51.298 81.2043 50.728 83.5603 50.728ZM83.3893 51.868C82.2873 51.868 81.3373 52.21 80.5393 52.894C79.7793 53.54 79.1713 54.718 78.7153 56.428C78.2973 58.1 78.0693 60.475 78.0313 63.553H87.7783C88.1583 59.411 88.0063 56.428 87.3223 54.604C86.6383 52.78 85.3273 51.868 83.3893 51.868Z" fill="white"/>
</g>
<defs>
<clipPath id="clip0_7_9">
<rect width="133" height="127" fill="white"/>
</clipPath>
</defs>
</svg>
